<svg xmlns="http://www.w3.org/2000/svg" viewBox="0 0 1280 920" font-family="-apple-system, BlinkMacSystemFont, 'Segoe UI', Roboto, sans-serif">
  <defs>
    <!-- Background gradient -->
    <linearGradient id="bg" x1="0" y1="0" x2="0" y2="1">
      <stop offset="0%" stop-color="#0b1226"/>
      <stop offset="100%" stop-color="#0a0f1f"/>
    </linearGradient>
    <linearGradient id="accent" x1="0" y1="0" x2="1" y2="0">
      <stop offset="0%" stop-color="#7c3aed"/>
      <stop offset="100%" stop-color="#06b6d4"/>
    </linearGradient>
    <linearGradient id="compliance" x1="0" y1="0" x2="1" y2="1">
      <stop offset="0%" stop-color="#bd0816" stop-opacity="0.10"/>
      <stop offset="100%" stop-color="#ff5252" stop-opacity="0.06"/>
    </linearGradient>

    <!-- Arrow markers -->
    <marker id="arrow" viewBox="0 0 10 10" refX="9" refY="5" markerWidth="6" markerHeight="6" orient="auto-start-reverse">
      <path d="M0,0 L10,5 L0,10 z" fill="#94a3b8"/>
    </marker>
    <marker id="arrow-accent" viewBox="0 0 10 10" refX="9" refY="5" markerWidth="6" markerHeight="6" orient="auto-start-reverse">
      <path d="M0,0 L10,5 L0,10 z" fill="#a166ff"/>
    </marker>

    <!-- ===== Icon symbols (extracted from icons/ dir) ===== -->

    <!-- Cloudflare -->
    <symbol id="ico-cloudflare" viewBox="0 0 128 128">
      <path fill="#FFF" d="m115.679 69.288l-15.591-8.94l-2.689-1.163l-63.781.436v32.381h82.061z"/>
      <path fill="#F38020" d="M87.295 89.022c.763-2.617.472-5.015-.8-6.796c-1.163-1.635-3.125-2.58-5.488-2.689l-44.737-.581c-.291 0-.545-.145-.691-.363s-.182-.509-.109-.8c.145-.436.581-.763 1.054-.8l45.137-.581c5.342-.254 11.157-4.579 13.192-9.885l2.58-6.723c.109-.291.145-.581.073-.872c-2.906-13.158-14.644-22.97-28.672-22.97c-12.938 0-23.913 8.359-27.838 19.952a13.35 13.35 0 0 0-9.267-2.58c-6.215.618-11.193 5.597-11.811 11.811c-.145 1.599-.036 3.162.327 4.615C10.104 70.051 2 78.337 2 88.549c0 .909.073 1.817.182 2.726a.895.895 0 0 0 .872.763h82.57c.472 0 .909-.327 1.054-.8l.617-2.216z"/>
      <path fill="#FAAE40" d="M101.542 60.275c-.4 0-.836 0-1.236.036c-.291 0-.545.218-.654.509l-1.744 6.069c-.763 2.617-.472 5.015.8 6.796c1.163 1.635 3.125 2.58 5.488 2.689l9.522.581c.291 0 .545.145.691.363c.145.218.182.545.109.8c-.145.436-.581.763-1.054.8l-9.924.582c-5.379.254-11.157 4.579-13.192 9.885l-.727 1.853c-.145.363.109.727.509.727h34.089c.4 0 .763-.254.872-.654c.581-2.108.909-4.325.909-6.614c0-13.447-10.975-24.422-24.458-24.422"/>
    </symbol>

    <!-- AWS CloudFront -->
    <symbol id="ico-cloudfront" viewBox="0 0 256 256">
      <defs>
        <linearGradient id="g-cf" x1="0%" x2="100%" y1="100%" y2="0%">
          <stop offset="0%" stop-color="#4d27a8"/>
          <stop offset="100%" stop-color="#a166ff"/>
        </linearGradient>
      </defs>
      <path fill="url(#g-cf)" d="M0 0h256v256H0z"/>
      <path fill="#fff" d="M176.39 166.794c0-5.293-4.307-9.6-9.6-9.6s-9.6 4.307-9.6 9.6s4.308 9.6 9.6 9.6c5.293 0 9.6-4.308 9.6-9.6m6.4 0c0 8.822-7.177 16-16 16c-8.822 0-16-7.178-16-16c0-8.823 7.178-16 16-16c8.823 0 16 7.177 16 16m-85.536-46.18c0-5.292-4.307-9.6-9.6-9.6c-5.296 0-9.6 4.308-9.6 9.6c0 5.293 4.304 9.6 9.6 9.6c5.293 0 9.6-4.307 9.6-9.6m6.4 0c0 8.823-7.18 16-16 16c-8.822 0-16-7.177-16-16c0-8.822 7.178-16 16-16c8.82 0 16 7.178 16 16m23.482-50.192c0 5.293 4.307 9.6 9.6 9.6c5.296 0 9.6-4.307 9.6-9.6c0-5.296-4.304-9.6-9.6-9.6c-5.293 0-9.6 4.304-9.6 9.6m-6.4 0c0-8.822 7.18-16 16-16c8.822 0 16 7.178 16 16c0 8.823-7.178 16-16 16c-8.82 0-16-7.177-16-16M211.2 128c0-29.674-15.91-57.126-41.562-71.971c-4.598.928-9.046 2.198-14.595 4.205l-2.176-6.02a131 131 0 0 1 7.984-2.61A83 83 0 0 0 128 44.8c-5.405 0-10.723.56-15.92 1.574c3.763 2.202 7.1 4.397 10.342 6.855l-3.868 5.097c-4.57-3.462-9.306-6.396-15.524-9.654c-31.42 9.882-54.05 37.594-57.644 70.138c6.588-1.335 12.915-2.061 19.939-2.234l.157 6.397c-7.36.182-13.684.963-20.596 2.483c-.028.848-.086 1.706-.086 2.544c0 27.706 13.706 53.235 36.246 68.63c-4.01-11.939-6.006-23.222-6.006-34.243c0-6.285 1.082-11.446 2.224-16.909c.266-1.264.534-2.55.797-3.884l6.281 1.238c-.268 1.357-.544 2.672-.812 3.962c-1.12 5.35-2.09 9.97-2.09 15.593c0 12.506 2.746 25.437 8.333 39.479c11.9 6.179 24.752 9.334 38.227 9.334c8.82 0 17.427-1.408 25.638-4.115c3.223-6.359 5.613-12.359 7.61-19.248l6.147 1.782a114 114 0 0 1-5.126 14.147c5.165-2.323 10.051-5.196 14.637-8.55c-1.104-2.707-2.288-5.398-3.597-8.02l5.725-2.863c1.113 2.227 2.134 4.505 3.11 6.797C200.656 175.28 211.2 152.512 211.2 128m6.4 0c0 27.926-12.691 53.757-34.813 70.877c-5.478 4.256-11.42 7.789-17.702 10.633c-2.666 1.21-5.38 2.33-8.17 3.27c-9.216 3.198-18.953 4.82-28.915 4.82c-14.72 0-29.338-3.667-42.278-10.605C56.534 191.38 38.4 161.11 38.4 128c0-2.195.058-3.866.189-5.411c2.179-37.389 27.83-69.75 63.814-80.458C110.598 39.658 119.216 38.4 128 38.4c15.386 0 30.525 3.962 43.789 11.453C200.042 65.68 217.6 95.629 217.6 128m-98.195-46.518l-4.205-4.823c-7.174 6.26-12.755 12.906-19.274 22.944l5.37 3.485c6.17-9.507 11.418-15.766 18.109-21.606m-9.725 41.484l-2.08 6.052c14.698 5.046 27.52 13.097 40.349 25.337l4.419-4.63c-13.523-12.9-27.088-21.402-42.688-26.759m42.787-37.628c12.007 18.31 18.768 38.41 20.093 59.744l-6.387.396c-1.258-20.21-7.667-39.264-19.053-56.63z"/>
    </symbol>

    <!-- AWS Lambda -->
    <symbol id="ico-lambda" viewBox="0 0 256 256">
      <defs>
        <linearGradient id="g-lambda" x1="0%" x2="100%" y1="100%" y2="0%">
          <stop offset="0%" stop-color="#c8511b"/>
          <stop offset="100%" stop-color="#f90"/>
        </linearGradient>
      </defs>
      <path fill="url(#g-lambda)" d="M0 0h256v256H0z"/>
      <path fill="#fff" d="M89.624 211.2H49.89l43.945-91.853l19.912 40.992zm7.079-100.63a3.22 3.22 0 0 0-2.887-1.805h-.01a3.2 3.2 0 0 0-2.886 1.82L41.913 213.022a3.203 3.203 0 0 0 2.893 4.58l46.848-.001a3.21 3.21 0 0 0 2.9-1.83l25.65-54.08a3.18 3.18 0 0 0-.016-2.762zM207.985 211.2h-39.477L105.174 78.624a3.21 3.21 0 0 0-2.897-1.824h-25.83l.03-32h50.626l63.042 132.573a3.21 3.21 0 0 0 2.897 1.827h14.943zm3.208-38.4h-16.121L132.03 40.227a3.21 3.21 0 0 0-2.9-1.827H73.273a3.206 3.206 0 0 0-3.208 3.197l-.035 38.4c0 .851.333 1.664.94 2.265c.6.602 1.414.938 2.267.938h27.017l63.337 132.576a3.2 3.2 0 0 0 2.893 1.824h44.709a3.203 3.203 0 0 0 3.207-3.2V176c0-1.766-1.434-3.2-3.207-3.2"/>
    </symbol>

    <!-- AWS DynamoDB -->
    <symbol id="ico-dynamo" viewBox="0 0 256 256">
      <defs>
        <linearGradient id="g-ddb" x1="0%" x2="100%" y1="100%" y2="0%">
          <stop offset="0%" stop-color="#2e27ad"/>
          <stop offset="100%" stop-color="#527fff"/>
        </linearGradient>
      </defs>
      <path fill="url(#g-ddb)" d="M0 0h256v256H0z"/>
      <path fill="#fff" d="M166.675 175.52c-10.682 8.637-33.091 13.2-54.534 13.2c-21.447 0-43.863-4.566-54.541-13.202v17.392h.003c0 8.675 22.397 18.342 54.538 18.342c32.115 0 54.499-9.655 54.534-18.323zm.003-33.049l6.4-.035v.035c0 3.866-1.936 7.475-5.705 10.779c4.57 4.021 5.705 7.966 5.705 10.775c0 .02-.003.035-.003.054v28.831h.003c0 16.035-31.398 24.69-60.937 24.69c-29.469 0-60.781-8.617-60.931-24.578c0-.016-.01-.032-.01-.048v-28.958c0-.007.006-.016.006-.026c.01-2.809 1.15-6.738 5.712-10.75c-4.534-4.005-5.686-7.912-5.715-10.699h.003c0-.013-.006-.022-.006-.035v-28.958c0-.01.006-.02.006-.029c.01-2.809 1.152-6.738 5.716-10.743c-4.538-4.009-5.69-7.92-5.719-10.703h.003c0-.012-.006-.025-.006-.038V63.08c0-.01.006-.019.006-.029C51.261 47.04 82.624 38.4 112.141 38.4c16.675 0 32.694 2.65 43.948 7.271l-2.448 5.866c-10.505-4.314-25.632-6.79-41.5-6.79c-32.141 0-54.538 9.668-54.538 18.349c0 8.677 22.397 18.345 54.538 18.345c.867.01 1.715 0 2.573-.032l.268 6.342c-.947.038-1.894.038-2.841.038c-21.447 0-43.863-4.568-54.541-13.204V91.97h.003v.073c.032 3.329 3.447 6.236 6.307 8.083c8.608 5.488 24.032 9.236 41.232 10.014l-.29 6.341c-17.425-.79-32.682-4.405-42.503-9.946c-2.42 1.809-4.746 4.256-4.746 7.03c0 8.677 22.397 18.345 54.538 18.345c3.152 0 6.281-.105 9.305-.315l.445 6.332c-3.168.22-6.451.33-9.75.33c-21.447 0-43.863-4.567-54.541-13.203v17.383h.003c.032 3.403 3.447 6.307 6.307 8.157c9.844 6.281 28.327 10.192 48.23 10.192h1.409v6.347h-1.408c-20.221 0-38.599-3.754-49.837-10.099c-2.406 1.806-4.7 4.24-4.7 6.992c0 8.677 22.396 18.348 54.537 18.348c32.115 0 54.499-9.655 54.534-18.326v-.035c-.006-2.758-2.31-5.192-4.723-6.998a45 45 0 0 1-5.14 2.523l-2.45-5.865c2.323-.955 4.339-1.987 5.993-3.072c2.886-1.883 6.323-4.825 6.323-8.129m27.411-46.418h-17.932c-1.06 0-2.055-.52-2.647-1.39a3.14 3.14 0 0 1-.33-2.951l10.91-27.27h-41.31l-19.2 38.086h20.423c1.02 0 1.98.486 2.586 1.301c.598.82.774 1.87.464 2.838l-18.228 56.818zm9.821-.974l-79.996 82.648a3.22 3.22 0 0 1-2.31.974a3.2 3.2 0 0 1-1.636-.444a3.16 3.16 0 0 1-1.414-3.692l21.075-65.69h-21.226a3.21 3.21 0 0 1-2.723-1.504a3.15 3.15 0 0 1-.138-3.088l22.4-44.434a3.2 3.2 0 0 1 2.861-1.755h48a3.21 3.21 0 0 1 2.646 1.39a3.15 3.15 0 0 1 .33 2.955L180.87 89.706h20.73c1.28 0 2.441.761 2.944 1.93a3.16 3.16 0 0 1-.634 3.443M62.256 194.158c4.534 2.555 10.243 4.703 16.966 6.38l1.562-6.158c-6.077-1.514-11.389-3.5-15.366-5.742zm16.966-44.403l1.562-6.154c-6.077-1.517-11.389-3.504-15.366-5.745l-3.162 5.52c4.534 2.555 10.24 4.704 16.966 6.38M62.256 92.594l3.162-5.52c3.97 2.241 9.286 4.225 15.366 5.745l-1.562 6.154c-6.732-1.679-12.438-3.827-16.966-6.38"/>
    </symbol>

    <!-- AWS SQS -->
    <symbol id="ico-sqs" viewBox="0 0 256 256">
      <defs>
        <linearGradient id="g-sqs" x1="0%" x2="100%" y1="100%" y2="0%">
          <stop offset="0%" stop-color="#b0084d"/>
          <stop offset="100%" stop-color="#ff4f8b"/>
        </linearGradient>
      </defs>
      <path fill="url(#g-sqs)" d="M0 0h256v256H0z"/>
      <path fill="#fff" d="m91.894 139.8l9.607-9.49a3.18 3.18 0 0 0 .944-2.246a3.17 3.17 0 0 0-.932-2.253l-9.606-9.599l-4.54 4.486l4.12 4.12H76.83v6.364h14.71l-4.16 4.107zm73.315.29l12.808-9.551a3.19 3.19 0 0 0 1.278-2.542a3.19 3.19 0 0 0-1.281-2.549l-12.808-9.538l-3.843 5.09l5.123 3.818h-12.808v6.364h12.805L161.36 135zM112.666 128c0 6.755-1.169 13.124-3.352 18.666c5.76-2.214 12.257-3.321 18.748-3.321c6.49 0 12.987 1.107 18.744 3.321c-2.18-5.542-3.349-11.911-3.349-18.666s1.169-13.12 3.35-18.666c-11.518 4.425-25.972 4.425-37.493 0c2.183 5.545 3.352 11.911 3.352 18.666M96.98 158.884a3.163 3.163 0 0 1 0-4.499c5.812-5.775 9.283-15.64 9.283-26.385c0-10.744-3.471-20.61-9.283-26.385a3.163 3.163 0 0 1 0-4.499a3.213 3.213 0 0 1 4.528 0c12.408 12.329 40.701 12.329 53.11 0a3.213 3.213 0 0 1 4.527 0a3.163 3.163 0 0 1 0 4.499c-5.812 5.775-9.283 15.64-9.283 26.385c0 10.744 3.471 20.61 9.283 26.385a3.163 3.163 0 0 1 0 4.499a3.2 3.2 0 0 1-2.264.932c-.82 0-1.64-.312-2.264-.932c-12.408-12.329-40.701-12.329-53.109 0a3.213 3.213 0 0 1-4.528 0m114.224-30.868c0-2.965-1.162-5.752-3.272-7.85a11.16 11.16 0 0 0-7.9-3.244c-2.86 0-5.722 1.078-7.9 3.245c-4.357 4.327-4.357 11.368 0 15.698c4.355 4.327 11.438 4.33 15.8 0a11 11 0 0 0 3.272-7.85m1.255 12.348c-3.426 3.404-7.925 5.106-12.427 5.106s-9-1.702-12.427-5.106c-6.856-6.809-6.856-17.887 0-24.696c6.856-6.815 18.005-6.809 24.854 0c6.856 6.809 6.856 17.887 0 24.696M67.136 128.089c0-2.965-1.162-5.752-3.272-7.849a11.13 11.13 0 0 0-7.9-3.252a11.15 11.15 0 0 0-7.9 3.252a11 11 0 0 0-3.269 7.85a11 11 0 0 0 3.27 7.848c4.223 4.19 11.578 4.19 15.799 0a11 11 0 0 0 3.272-7.849m1.255 12.348c-3.426 3.404-7.925 5.106-12.427 5.106c-4.499 0-8.998-1.702-12.427-5.106c-6.85-6.809-6.85-17.887 0-24.696c6.856-6.808 18.002-6.808 24.854 0c6.853 6.809 6.853 17.887 0 24.696m107.276 35.102c-12.783 12.705-29.783 19.698-47.862 19.698c-18.085 0-35.081-6.993-47.864-19.698c-8.767-8.708-13.593-19.115-16.097-26.308l-6.052 2.08c2.725 7.827 7.993 19.163 17.621 28.727c13.993 13.907 32.597 21.562 52.392 21.562c19.792 0 38.396-7.655 52.39-21.562c8.085-8.027 14.524-18.233 18.139-28.736l-6.058-2.062c-3.305 9.602-9.203 18.944-16.61 26.3M63.84 106.772l-6.045-2.087c3.874-11.084 10.137-21.291 17.637-28.74C89.419 62.053 108.017 54.4 127.805 54.4c19.79 0 38.387 7.652 52.37 21.546c7.893 7.842 14.512 18.316 18.153 28.74l-6.046 2.086c-3.34-9.544-9.401-19.14-16.635-26.327c-12.773-12.695-29.766-19.682-47.842-19.682c-18.078 0-35.068 6.987-47.845 19.682c-6.826 6.786-12.552 16.137-16.119 26.327"/>
    </symbol>

    <!-- AWS S3 -->
    <symbol id="ico-s3" viewBox="0 0 256 256">
      <defs>
        <linearGradient id="g-s3" x1="0%" x2="100%" y1="100%" y2="0%">
          <stop offset="0%" stop-color="#1b660f"/>
          <stop offset="100%" stop-color="#6cae3e"/>
        </linearGradient>
      </defs>
      <path fill="url(#g-s3)" d="M0 0h256v256H0z"/>
      <path fill="#fff" d="m194.675 137.256l1.229-8.652c11.33 6.787 11.478 9.59 11.475 9.667c-.02.016-1.952 1.629-12.704-1.015m-6.218-1.728c-19.584-5.926-46.857-18.438-57.894-23.654c0-.045.013-.086.013-.131c0-4.24-3.45-7.69-7.693-7.69c-4.237 0-7.687 3.45-7.687 7.69s3.45 7.69 7.687 7.69c1.862 0 3.552-.695 4.886-1.8c12.986 6.148 40.048 18.478 59.776 24.302l-7.801 55.059q-.033.225-.032.451c0 4.848-21.463 13.754-56.532 13.754c-35.44 0-57.13-8.906-57.13-13.754q0-.22-.028-.435l-16.3-119.062c14.108 9.712 44.454 14.85 73.478 14.85c28.979 0 59.273-5.12 73.41-14.802zM48 65.528c.23-4.21 24.428-20.73 75.2-20.73c50.764 0 74.966 16.516 75.2 20.73v1.437c-2.784 9.443-34.144 19.434-75.2 19.434c-41.127 0-72.503-10.023-75.2-19.479zm156.8.07c0-11.087-31.79-27.2-81.6-27.2c-49.812 0-81.6 16.113-81.6 27.2l.3 2.414l17.754 129.676c.426 14.503 39.1 19.91 63.526 19.91c30.31 0 62.512-6.969 62.928-19.9l7.668-54.07c4.265 1.02 7.776 1.542 10.595 1.542c3.785 0 6.345-.925 7.897-2.774c1.274-1.517 1.76-3.354 1.396-5.31c-.83-4.428-6.087-9.202-16.794-15.311l7.603-53.639z"/>
    </symbol>

    <!-- AWS IAM -->
    <symbol id="ico-iam" viewBox="0 0 256 256">
      <defs>
        <linearGradient id="g-iam" x1="0%" x2="100%" y1="100%" y2="0%">
          <stop offset="0%" stop-color="#bd0816"/>
          <stop offset="100%" stop-color="#ff5252"/>
        </linearGradient>
      </defs>
      <path fill="url(#g-iam)" d="M0 0h256v256H0z"/>
      <path fill="#fff" d="M44.8 188.8h166.4V67.2H44.8zM217.6 64v128a3.2 3.2 0 0 1-3.2 3.2H41.6a3.2 3.2 0 0 1-3.2-3.2V64a3.2 3.2 0 0 1 3.2-3.2h172.8a3.2 3.2 0 0 1 3.2 3.2m-76.8 89.6h48v-6.4h-48zm41.6-19.2h16V128h-16zm-41.6 0h25.6V128h-25.6zm-48 12.8c0-1.763-1.434-3.2-3.2-3.2a3.203 3.203 0 0 0-3.2 3.2c0 1.763 1.434 3.2 3.2 3.2s3.2-1.437 3.2-3.2m6.4 0c0 4.166-2.685 7.683-6.4 9.011v6.989h-6.4v-6.992c-3.715-1.325-6.4-4.842-6.4-9.008c0-5.293 4.307-9.6 9.6-9.6s9.6 4.307 9.6 9.6m-38.4 25.578l57.58.022l.007-12.8H105.6v-6.4h12.787l.007-9.6H105.6v-6.4h12.797l.003-9.578L60.82 128zm9.6-51.175l38.4.016V99.2c.003-7.37-8.97-13.834-19.2-13.84h-.013c-10.214 0-19.174 6.467-19.18 13.84zm-16 54.371l.02-51.174a3.2 3.2 0 0 1 3.2-3.2l6.38.003l.006-22.403c.007-11.162 11.482-20.24 25.581-20.24h.013c14.118.006 25.603 9.088 25.6 20.24v22.422l6.4.004a3.2 3.2 0 0 1 3.2 3.2L124.78 176a3.2 3.2 0 0 1-3.2 3.2l-63.98-.026a3.2 3.2 0 0 1-3.2-3.2M192 115.2h6.4v-6.4H192zm-51.2 0H176v-6.4h-35.2z"/>
    </symbol>

    <!-- Next.js (white on dark badge) -->
    <symbol id="ico-nextjs" viewBox="0 0 24 24">
      <path fill="#ffffff" d="M12 2C6.48 2 2 6.48 2 12s4.48 10 10 10c2.05 0 3.95-.62 5.54-1.67L9.26 9.63v6.5H7.87V7.86h1.74l9.03 11.63A9.97 9.97 0 0 0 22.01 12c0-5.52-4.48-10-10-10Zm4.25 12.13l-1.38-1.78V7.86h1.38z"/>
    </symbol>

    <!-- User glyph -->
    <symbol id="ico-user" viewBox="0 0 24 24">
      <circle cx="12" cy="8" r="4" fill="#e2e8f0"/>
      <path d="M4 20c0-4.4 3.6-8 8-8s8 3.6 8 8" fill="#e2e8f0"/>
    </symbol>

    <!-- Box style -->
    <filter id="soft-shadow" x="-20%" y="-20%" width="140%" height="140%">
      <feDropShadow dx="0" dy="2" stdDeviation="6" flood-color="#000" flood-opacity="0.35"/>
    </filter>
  </defs>

  <!-- ===== Background ===== -->
  <rect width="1280" height="920" fill="url(#bg)"/>

  <!-- Title -->
  <text x="640" y="50" text-anchor="middle" font-size="26" font-weight="700" fill="#f8fafc" letter-spacing="0.5">TokenBuzz — Platform Architecture</text>
  <text x="640" y="76" text-anchor="middle" font-size="13" fill="#94a3b8">Next.js on SST · AWS serverless · CIS 6.0 hardened via Terraform</text>

  <!-- ===== CIS Compliance outer band (wraps the AWS account) ===== -->
  <rect x="40" y="120" width="1200" height="760" rx="18" fill="url(#compliance)" stroke="#ff5252" stroke-opacity="0.45" stroke-dasharray="6 4" stroke-width="1.5"/>
  <g transform="translate(60,140)">
    <use href="#ico-iam" width="28" height="28"/>
    <text x="38" y="20" font-size="13" font-weight="700" fill="#fecaca" letter-spacing="0.5">CIS 6.0 COMPLIANCE LAYER  ·  compliance-cis-6.0 (Terraform)</text>
  </g>
  <text x="1220" y="158" text-anchor="end" font-size="11" fill="#fca5a5" font-style="italic">CloudTrail · IAM Access Analyzer · EBS encryption · default-SG lockdown · scheduled Prowler scan</text>

  <!-- ===== AWS Account inner container ===== -->
  <rect x="80" y="190" width="1120" height="660" rx="14" fill="#0f172a" fill-opacity="0.55" stroke="#1f2a44" stroke-width="1"/>
  <text x="100" y="215" font-size="11" fill="#64748b" font-weight="600" letter-spacing="1">AWS ACCOUNT  ·  us-east-1  (SST-managed)</text>

  <!-- ===== Edge layer ===== -->
  <!-- User -->
  <g transform="translate(595,235)">
    <circle r="26" cx="25" cy="25" fill="#1e293b" stroke="#475569"/>
    <use href="#ico-user" x="8" y="8" width="34" height="34"/>
  </g>
  <text x="620" y="305" text-anchor="middle" font-size="12" fill="#cbd5e1" font-weight="600">End users / clients</text>

  <!-- Arrow user → Cloudflare -->
  <line x1="620" y1="313" x2="620" y2="340" stroke="#94a3b8" stroke-width="1.5" marker-end="url(#arrow)"/>

  <!-- Cloudflare DNS -->
  <g transform="translate(540,340)" filter="url(#soft-shadow)">
    <rect width="160" height="68" rx="10" fill="#1e293b" stroke="#334155"/>
    <use href="#ico-cloudflare" x="14" y="14" width="40" height="40"/>
    <text x="64" y="34" font-size="13" font-weight="700" fill="#f8fafc">Cloudflare DNS</text>
    <text x="64" y="52" font-size="10.5" fill="#94a3b8">tokenbuzz.app · TLS · WAF</text>
  </g>

  <!-- Arrow Cloudflare → CloudFront -->
  <line x1="620" y1="408" x2="620" y2="438" stroke="#94a3b8" stroke-width="1.5" marker-end="url(#arrow)"/>

  <!-- CloudFront Router -->
  <g transform="translate(520,438)" filter="url(#soft-shadow)">
    <rect width="200" height="74" rx="10" fill="#1e1b3a" stroke="#4d27a8"/>
    <use href="#ico-cloudfront" x="14" y="14" width="46" height="46"/>
    <text x="72" y="36" font-size="13" font-weight="700" fill="#f8fafc">CloudFront Router</text>
    <text x="72" y="54" font-size="10.5" fill="#a5b4fc">single SST Router · split origin</text>
  </g>

  <!-- Split arrows to two Next apps -->
  <path d="M580 512 L 320 562" stroke="#a166ff" stroke-width="1.6" fill="none" marker-end="url(#arrow-accent)"/>
  <path d="M660 512 L 920 562" stroke="#a166ff" stroke-width="1.6" fill="none" marker-end="url(#arrow-accent)"/>

  <!-- Marketing Next.js -->
  <g transform="translate(160,562)" filter="url(#soft-shadow)">
    <rect width="240" height="80" rx="10" fill="#0f172a" stroke="#334155"/>
    <rect x="14" y="14" width="52" height="52" rx="8" fill="#000"/>
    <use href="#ico-nextjs" x="22" y="22" width="36" height="36"/>
    <text x="78" y="36" font-size="13" font-weight="700" fill="#f8fafc">Marketing site</text>
    <text x="78" y="54" font-size="10.5" fill="#94a3b8">apex · Next.js · contact form</text>
    <text x="78" y="70" font-size="10" fill="#64748b">Turnstile · Resend</text>
  </g>

  <!-- Application Next.js -->
  <g transform="translate(800,562)" filter="url(#soft-shadow)">
    <rect width="240" height="80" rx="10" fill="#0f172a" stroke="#334155"/>
    <rect x="14" y="14" width="52" height="52" rx="8" fill="#000"/>
    <use href="#ico-nextjs" x="22" y="22" width="36" height="36"/>
    <text x="78" y="36" font-size="13" font-weight="700" fill="#f8fafc">Application</text>
    <text x="78" y="54" font-size="10.5" fill="#94a3b8">app.tokenbuzz.app · Next.js</text>
    <text x="78" y="70" font-size="10" fill="#64748b">Clerk auth · dashboards · alerts</text>
  </g>

  <!-- ===== Data + jobs row ===== -->

  <!-- API Lambda -->
  <g transform="translate(820,690)" filter="url(#soft-shadow)">
    <rect width="200" height="72" rx="10" fill="#1f1308" stroke="#c8511b"/>
    <use href="#ico-lambda" x="14" y="14" width="44" height="44"/>
    <text x="68" y="36" font-size="13" font-weight="700" fill="#f8fafc">API · /api routes</text>
    <text x="68" y="54" font-size="10.5" fill="#fed7aa">Lambda · SST bindings</text>
  </g>

  <!-- DynamoDB cluster -->
  <g transform="translate(500,690)" filter="url(#soft-shadow)">
    <rect width="240" height="120" rx="10" fill="#0a0e2e" stroke="#2e27ad"/>
    <use href="#ico-dynamo" x="14" y="14" width="52" height="52"/>
    <text x="78" y="36" font-size="13" font-weight="700" fill="#f8fafc">DynamoDB</text>
    <text x="78" y="54" font-size="10.5" fill="#a5b4fc">single-table design</text>
    <g font-size="10" fill="#cbd5e1">
      <text x="14" y="82">Tweets</text>
      <text x="78" y="82">Aggregates</text>
      <text x="172" y="82">Tokens</text>
      <text x="14" y="98">UserData (BYOK · KMS)</text>
      <text x="14" y="112" fill="#64748b">GSIs: TopK · ByAuthor · SpikingByDelta</text>
    </g>
  </g>

  <!-- Arrow Application → API Lambda -->
  <path d="M920 642 L 920 690" stroke="#94a3b8" stroke-width="1.5" fill="none" marker-end="url(#arrow)"/>
  <!-- Arrow API Lambda → DynamoDB -->
  <path d="M820 726 L 740 726" stroke="#94a3b8" stroke-width="1.5" fill="none" marker-end="url(#arrow)"/>

  <!-- SQS queue -->
  <g transform="translate(240,690)" filter="url(#soft-shadow)">
    <rect width="200" height="72" rx="10" fill="#240d1e" stroke="#b0084d"/>
    <use href="#ico-sqs" x="14" y="14" width="44" height="44"/>
    <text x="68" y="36" font-size="13" font-weight="700" fill="#f8fafc">SQS</text>
    <text x="68" y="54" font-size="10.5" fill="#fbcfe8">stream fan-out · retries</text>
  </g>

  <!-- Jobs Lambda (ingestion) -->
  <g transform="translate(100,790)" filter="url(#soft-shadow)">
    <rect width="240" height="72" rx="10" fill="#1f1308" stroke="#c8511b"/>
    <use href="#ico-lambda" x="14" y="14" width="44" height="44"/>
    <text x="68" y="34" font-size="13" font-weight="700" fill="#f8fafc">Ingestion jobs</text>
    <text x="68" y="52" font-size="10.5" fill="#fed7aa">Farcaster · Telegram · Reddit</text>
    <text x="68" y="66" font-size="10" fill="#a3a3a3">EventBridge cron · TweetPoller</text>
  </g>

  <!-- DynamoDB Streams → SQS arrow -->
  <path d="M500 726 L 440 726" stroke="#94a3b8" stroke-width="1.5" fill="none" marker-end="url(#arrow)"/>
  <text x="470" y="718" text-anchor="middle" font-size="9" fill="#64748b">DDB Streams</text>

  <!-- SQS → Jobs Lambda arrow -->
  <path d="M310 762 L 240 800" stroke="#94a3b8" stroke-width="1.5" fill="none" marker-end="url(#arrow)"/>

  <!-- KMS / IAM (BYOK) -->
  <g transform="translate(1040,690)" filter="url(#soft-shadow)">
    <rect width="140" height="72" rx="10" fill="#270b0e" stroke="#bd0816"/>
    <use href="#ico-iam" x="14" y="14" width="44" height="44"/>
    <text x="64" y="34" font-size="12" font-weight="700" fill="#f8fafc">IAM · KMS</text>
    <text x="64" y="52" font-size="10" fill="#fecaca">BYOK envelope</text>
    <text x="64" y="66" font-size="10" fill="#fecaca">encryption</text>
  </g>
  <path d="M1040 726 L 1020 726" stroke="#94a3b8" stroke-width="1.5" fill="none" marker-end="url(#arrow)"/>

  <!-- S3 (assets / CloudTrail logs) -->
  <g transform="translate(380,790)" filter="url(#soft-shadow)">
    <rect width="200" height="72" rx="10" fill="#0a1a08" stroke="#1b660f"/>
    <use href="#ico-s3" x="14" y="14" width="44" height="44"/>
    <text x="68" y="34" font-size="13" font-weight="700" fill="#f8fafc">S3</text>
    <text x="68" y="52" font-size="10.5" fill="#bbf7d0">Next.js assets · CloudTrail</text>
    <text x="68" y="66" font-size="10" fill="#86efac">SSE · public-access blocked</text>
  </g>

  <!-- S3 for Prowler / evidence -->
  <g transform="translate(620,790)" filter="url(#soft-shadow)">
    <rect width="220" height="72" rx="10" fill="#0a1a08" stroke="#1b660f"/>
    <use href="#ico-s3" x="14" y="14" width="44" height="44"/>
    <text x="68" y="34" font-size="13" font-weight="700" fill="#f8fafc">Evidence / baselines</text>
    <text x="68" y="52" font-size="10.5" fill="#bbf7d0">Prowler JSON · SBOMs</text>
    <text x="68" y="66" font-size="10" fill="#86efac">dated · immutable</text>
  </g>

  <!-- Auth (Clerk) — sidecar outside AWS box -->
  <g transform="translate(1090,440)" filter="url(#soft-shadow)">
    <rect width="120" height="74" rx="10" fill="#1e293b" stroke="#334155"/>
    <circle cx="30" cy="37" r="14" fill="#6c47ff"/>
    <text x="30" y="42" text-anchor="middle" font-size="14" font-weight="700" fill="#fff">C</text>
    <text x="56" y="34" font-size="12" font-weight="700" fill="#f8fafc">Clerk</text>
    <text x="56" y="50" font-size="10" fill="#94a3b8">auth · sessions</text>
    <text x="56" y="64" font-size="10" fill="#64748b">JWT to app</text>
  </g>
  <path d="M1040 600 L 1090 510" stroke="#94a3b8" stroke-width="1.2" stroke-dasharray="3 3" fill="none" marker-end="url(#arrow)"/>

  <!-- Legend (bottom) -->
  <g transform="translate(100,876)">
    <rect width="14" height="14" rx="3" fill="none" stroke="#a166ff"/>
    <text x="22" y="11" font-size="10" fill="#94a3b8">edge / routing</text>
    <rect x="120" width="14" height="14" rx="3" fill="none" stroke="#c8511b"/>
    <text x="142" y="11" font-size="10" fill="#94a3b8">compute (Lambda)</text>
    <rect x="270" width="14" height="14" rx="3" fill="none" stroke="#2e27ad"/>
    <text x="292" y="11" font-size="10" fill="#94a3b8">persistence (DynamoDB / S3)</text>
    <rect x="470" width="14" height="14" rx="3" fill="none" stroke="#b0084d"/>
    <text x="492" y="11" font-size="10" fill="#94a3b8">queues / streams</text>
    <rect x="600" width="14" height="14" rx="3" fill="none" stroke="#bd0816" stroke-dasharray="4 2"/>
    <text x="622" y="11" font-size="10" fill="#94a3b8">CIS 6.0 compliance perimeter</text>
  </g>
</svg>
